<?xml version="1.0" encoding="UTF-8" standalone="no"?>
<!-- Created with Inkscape (http://www.inkscape.org/) -->

<svg
   width="177.47298mm"
   height="38.067547mm"
   viewBox="0 0 177.47298 38.067547"
   version="1.1"
   id="svg5"
   xmlns="http://www.w3.org/2000/svg"
   xmlns:svg="http://www.w3.org/2000/svg">
  <defs
     id="defs2" />
  <g
     id="layer1"
     transform="translate(-11.964546,-65.337364)">
    <path
       d="m 158.29959,85.511138 h 15.26822 c -0.71084,-3.526015 -3.92906,-6.180667 -7.63323,-6.180667 -3.72815,0 -6.92891,2.654652 -7.63499,6.180667 z m 17.50306,1.463851 c 0,0.216782 -0.0282,0.460904 -0.0282,0.677686 h -17.5888 c 0.35632,3.910189 3.77332,6.967008 8.20968,6.967008 2.73808,0 4.9059,-1.165755 6.317,-2.954866 l 1.95087,1.111426 c -1.8168,2.466975 -4.71663,4.06629 -8.26787,4.06629 -5.90974,0 -10.32828,-4.418715 -10.32828,-9.867544 0,-5.44883 4.41854,-9.867547 9.86755,-9.867547 5.42131,0 9.86807,4.418717 9.86807,9.867547 z m 12.79525,-7.644518 h 0.83962 v -2.223029 h -0.83962 c -4.47675,0 -8.10683,3.3782 -8.10683,8.105597 v 11.250084 h 2.22427 V 85.213039 c 0,-3.499731 2.63348,-5.882568 5.88256,-5.882568 z m -91.817819,5.882568 v 11.250084 h 2.22303 V 85.213039 c 0,-4.727397 -3.629025,-8.105597 -8.1056,-8.105597 -2.900535,0 -5.54337,1.491014 -7.007225,4.527197 -1.490835,-3.009018 -4.10721,-4.527197 -6.980765,-4.527197 -4.47657,0 -8.105595,3.3782 -8.105595,8.105597 v 11.250084 h 2.223025 V 85.213039 c 0,-3.499731 2.633665,-5.882568 5.88257,-5.882568 3.24873,0 5.88257,2.382837 5.88257,5.882568 v 11.250084 h 2.222855 V 85.213039 c 0,-3.499731 2.633835,-5.882568 5.882565,-5.882568 3.24891,0 5.88257,2.382837 5.88257,5.882568 z m 50.530649,-14.204948 -2.22284,1.274056 v 5.204707 h -11.30425 v -6.478763 l -2.22302,1.274056 v 5.204707 h -2.98186 v 2.141714 h 2.98186 v 12.497153 c 0,2.412647 1.89759,4.337402 4.31042,4.337402 h 3.30729 v -2.22303 h -3.30729 c -1.13877,0 -2.0874,-0.948795 -2.0874,-2.141537 V 79.628568 h 11.30425 v 12.497153 c 0,2.412647 1.89759,4.337402 4.28325,4.337402 h 3.33427 v -2.22303 h -3.33427 c -1.11161,0 -2.06041,-0.948795 -2.06041,-2.141537 V 79.628568 h 5.39468 v -2.141714 h -5.39468 z m -26.07856,15.966898 c 0,-4.228925 -3.41559,-7.644518 -7.64469,-7.644518 -4.22893,0 -7.64452,3.415593 -7.64452,7.644518 0,4.2291 3.41559,7.644694 7.64452,7.644694 4.2291,0 7.64469,-3.415594 7.64469,-7.644694 z m 0,-9.488135 h 2.22303 v 18.976269 h -2.22303 v -3.70999 c -1.63618,2.477385 -4.35345,4.0894 -7.64469,4.0894 -5.44883,0 -9.86737,-4.418715 -9.86737,-9.867544 0,-5.44883 4.41854,-9.867547 9.86737,-9.867547 3.29124,0 6.00851,1.612193 7.64469,4.089576 z m -74.830164,5.0927 c -4.189942,1.147585 -7.947025,3.882496 -10.290704,7.942085 -2.343855,4.059589 -2.833864,8.680629 -1.732668,12.883271 l 4.105627,-2.37049 c -0.324026,-2.043467 -0.148166,-4.176537 0.579791,-6.203952 l 9.593089,5.538612 2.25513,-1.302102 v -2.603855 l -9.593087,-5.53861 c 1.391885,-1.644121 3.151187,-2.862792 5.082822,-3.604155 z M 28.498181,103.40491 c 1.101196,-4.202642 0.611188,-8.823682 -1.732668,-12.883271 -2.343679,-4.059589 -6.100762,-6.7945 -10.29088,-7.942085 v 4.740804 c 1.931812,0.741363 3.690938,1.960034 5.082822,3.604155 l -9.592909,5.53861 v 2.603855 l 2.254955,1.302102 9.593087,-5.538612 c 0.727956,2.027415 0.903816,4.160485 0.579966,6.203952 z M 23.520488,75.116541 c 1.607784,1.302279 3.542946,2.216502 5.662788,2.599794 V 66.639291 l 2.255132,-1.301927 2.255131,1.301927 v 11.077044 c 2.119666,-0.383292 4.054829,-1.297515 5.662613,-2.599794 l 4.105628,2.370313 c -3.088923,3.054879 -7.335837,4.941181 -12.023372,4.941181 -4.687535,0 -8.934627,-1.886302 -12.023549,-4.941181 l 4.105629,-2.370313"
       style="fill:#131926;fill-opacity:1;fill-rule:nonzero;stroke:none;stroke-width:0.0176388"
       id="path35" />
  </g>
</svg>
